<svg version="1.2" xmlns="http://www.w3.org/2000/svg" viewBox="0 0 60 60" width="60" height="60"><style>.a{fill:#fff}</style><path fill-rule="evenodd" class="a" d="m60 30c0 16.5-13.5 30-30 30-16.5 0-30-13.5-30-30 0-16.5 13.5-30 30-30 16.5 0 30 13.5 30 30zm-2 0c0-15.4-12.6-28-28-28-15.4 0-28 12.6-28 28 0 15.4 12.6 28 28 28 15.4 0 28-12.6 28-28zm-30-9v18c0 0.6-0.4 1-1 1-0.6 0-1-0.4-1-1v-17h-4v16h1c0.6 0 1 0.4 1 1 0 0.6-0.4 1-1 1h-2c-0.6 0-1-0.4-1-1v-18c0-0.6 0.4-1 1-1h6c0.6 0 1 0.4 1 1zm12 0v18c0 0.6-0.4 1-1 1-0.6 0-1-0.4-1-1v-17h-4v16h1c0.6 0 1 0.4 1 1 0 0.6-0.4 1-1 1h-2c-0.6 0-1-0.4-1-1v-18c0-0.6 0.4-1 1-1h6c0.6 0 1 0.4 1 1z"/></svg>