<svg version="1.2" xmlns="http://www.w3.org/2000/svg" viewBox="0 0 60 60" width="60" height="60"><style>.a{fill:#fff}</style><path fill-rule="evenodd" class="a" d="m60 30c0 16.5-13.5 30-30 30-16.5 0-30-13.5-30-30 0-16.5 13.5-30 30-30 16.5 0 30 13.5 30 30zm-2 0c0-15.4-12.6-28-28-28-15.4 0-28 12.6-28 28 0 15.4 12.6 28 28 28 15.4 0 28-12.6 28-28zm-18 0c0 0.3-0.2 0.7-0.5 0.8l-10 6.5c-0.4 0.3-1.1 0.1-1.4-0.3-0.2-0.5-0.1-1.1 0.3-1.4l8.8-5.6-11.2-7.2v16.2c0 0.6-0.4 1-1 1-0.6 0-1-0.4-1-1v-18c0-0.4 0.2-0.7 0.5-0.9 0.3-0.2 0.7-0.1 1 0.1l14 9c0.3 0.1 0.5 0.5 0.5 0.8z"/></svg>